<?xml version="1.0" encoding="utf-8"?>
<!-- Generator: Adobe Illustrator 19.0.0, SVG Export Plug-In . SVG Version: 6.00 Build 0)  -->
<svg version="1.1" id="Layer_2" xmlns="http://www.w3.org/2000/svg" xmlns:xlink="http://www.w3.org/1999/xlink" x="0px" y="0px"
	 viewBox="-31 276 548 242" style="enable-background:new -31 276 548 242;" xml:space="preserve">
<style type="text/css">
	.st0{fill:none;stroke:#111111;stroke-width:3;stroke-linecap:round;stroke-miterlimit:20;}
	.st1{fill:#D11616;}
	.st2{fill:none;stroke:#D11616;stroke-width:3;stroke-linecap:round;stroke-linejoin:round;stroke-miterlimit:20;}
</style>
<g>
	<g>
		<g>
			<path class="st0" d="M-29.5,356.1c51.9-23,161.1,19.5,161.1,19.5l0,0c0,0,70.4,33.3,115.2,74.5s104.2,64,157.7,61.7"/>
		</g>
		<g>
			<path class="st0" d="M445.9,501L445.9,501c0,0,57.6-30.3,67.7-84.1c10.1-53.9-22.7-97.9-22.7-97.9l0,0"/>
		</g>
		<g>
			<path class="st0" d="M455.4,291.5L455.4,291.5c0,0-70.9-34.6-125.1,3.4C276.1,332.8,278.5,407,278.5,407l0,0"/>
		</g>
		<g>
			<path class="st1" d="M475,315c-5.2,0-9.5-4.3-9.5-9.5s4.3-9.5,9.5-9.5l0,0c5.2,0,9.5,4.3,9.5,9.5S480.2,315,475,315z"/>
		</g>
		<g>
			<path class="st1" d="M282,433c-5.2,0-9.5-4.3-9.5-9.5s4.3-9.5,9.5-9.5s9.5,4.3,9.5,9.5S287.2,433,282,433z"/>
		</g>
		<g>
			<path class="st1" d="M425,517c-5.2,0-9.5-4.3-9.5-9.5c0-5.2,4.3-9.5,9.5-9.5s9.5,4.3,9.5,9.5C434.5,512.7,430.2,517,425,517z"/>
		</g>
	</g>
	<g>
		<path class="st2" d="M416,414.3L416,414.3h7.2c9,0,16.3-7.3,16.3-16.3v-22.6c0-9-7.3-16.3-16.3-16.3h-52.5
			c-9,0-16.3,7.3-16.3,16.3V398c0,9,7.3,16.3,16.3,16.3V431l17.8-16.7l0,0h14.8l0,0"/>
	</g>
</g>
</svg>
