<?xml version="1.0" encoding="utf-8"?>
<!-- Generator: Adobe Illustrator 19.0.0, SVG Export Plug-In . SVG Version: 6.00 Build 0)  -->
<svg version="1.1" id="Layer_1" xmlns="http://www.w3.org/2000/svg" xmlns:xlink="http://www.w3.org/1999/xlink" x="0px" y="0px"
	 viewBox="-123 183 364 427" style="enable-background:new -123 183 364 427;" xml:space="preserve">
<style type="text/css">
	.st0{fill:#D11616;}
	.st1{fill:#111111;stroke:#111111;stroke-miterlimit:10;}
	.st2{fill:none;stroke:#111111;stroke-width:2;stroke-linecap:round;stroke-linejoin:round;stroke-miterlimit:20;}
</style>
<g>
	<g transform="matrix(1 0 0 -1 0 14)">
		<g>
			<path class="st0" d="M-30.6-169.5c3.9,0,7-3.1,7-7s-3.1-7-7-7s-7,3.1-7,7S-34.5-169.5-30.6-169.5z"/>
		</g>
		<g>
			<path class="st1" d="M-18.7-176.5h259.1"/>
		</g>
	</g>
	<g transform="matrix(0 1 1 0 -332.5 332.5)">
		<g>
			<path class="st0" d="M112.5,224.1c3.9,0,7-3.1,7-7s-3.1-7-7-7s-7,3.1-7,7S108.6,224.1,112.5,224.1z"/>
		</g>
		<g>
			<path class="st2" d="M125.4,217.1H277"/>
		</g>
	</g>
</g>
</svg>
